<?xml version="1.0" encoding="utf-8"?>
<!-- Generator: Adobe Illustrator 16.0.0, SVG Export Plug-In . SVG Version: 6.00 Build 0)  -->
<!DOCTYPE svg PUBLIC "-//W3C//DTD SVG 1.1//EN" "http://www.w3.org/Graphics/SVG/1.1/DTD/svg11.dtd">
<svg version="1.1" id="Layer_1" xmlns="http://www.w3.org/2000/svg" xmlns:xlink="http://www.w3.org/1999/xlink" x="0px" y="0px"
	 width="800px" height="800px" viewBox="0 0 800 800" enable-background="new 0 0 800 800" xml:space="preserve">
<title>ic_fluent_tabs_24_filled</title>
<desc>Created with Sketch.</desc>
<g id="_xD83D__xDD0D_-Product-Icons">
	<g id="ic_fluent_tabs_24_filled">
		<path id="_xD83C__xDFA8_-Color" fill="#0891B2" d="M625,266.625c57.768,0,104.975,45.215,108.162,102.186l0.171,6.147v250
			c0,57.768-45.215,104.975-102.186,108.162L625,733.291H375c-57.768,0-104.975-45.215-108.162-102.186l-0.172-6.147v-250
			c0-57.768,45.215-104.975,102.186-108.162l6.147-0.171H625z M525,166.667c45.041,0,83.662,27.487,100.003,66.602L375,233.292
			c-78.24,0-141.667,63.426-141.667,141.667l0.001,250.073c-37.357-15.578-64.125-51.474-66.497-93.884L166.667,525V275
			c0-57.768,45.215-104.975,102.186-108.162l6.147-0.171H525z M425,66.667c43.326,0,80.711,25.434,98.041,62.185l1.959,4.482H275
			l-7.077,0.184c-75.764,4.226-134.589,66.23-134.589,141.482l0.001,250.031c-37.357-15.578-64.125-51.474-66.497-93.884L66.667,425
			V175c0-57.768,45.215-104.975,102.186-108.162L175,66.667H425z"/>
	</g>
</g>
</svg>
